<svg width="50" height="50" viewBox="0 0 50 50" fill="none" xmlns="http://www.w3.org/2000/svg">
<path d="M21.3388 33.9869L12.5 25.1479L15.4463 22.2017L21.3388 28.0944L33.124 16.3092L36.0702 19.2555L21.3388 33.9869Z" fill="#1DC37E"/>
<path fill-rule="evenodd" clip-rule="evenodd" d="M2.0835 25C2.0835 12.3435 12.3436 2.08334 25.0002 2.08334C37.6566 2.08334 47.9168 12.3435 47.9168 25C47.9168 37.6565 37.6566 47.9167 25.0002 47.9167C12.3436 47.9167 2.0835 37.6565 2.0835 25ZM25.0002 43.75C14.6448 43.75 6.25016 35.3554 6.25016 25C6.25016 14.6447 14.6448 6.25 25.0002 6.25C35.3556 6.25 43.7502 14.6447 43.7502 25C43.7502 35.3554 35.3556 43.75 25.0002 43.75Z" fill="#1DC37E"/>
</svg>
