<svg width="27" height="24" viewBox="0 0 27 24" fill="none" xmlns="http://www.w3.org/2000/svg">
<path d="M9.8904 6C9.28512 6 8.79443 6.44772 8.79443 7C8.79443 7.55228 9.28512 8 9.8904 8H16.4662C17.0715 8 17.5622 7.55228 17.5622 7C17.5622 6.44772 17.0715 6 16.4662 6H9.8904Z" fill="#107EFF"/>
<path d="M9.8904 10C9.28512 10 8.79443 10.4477 8.79443 11C8.79443 11.5523 9.28512 12 9.8904 12H16.4662C17.0715 12 17.5622 11.5523 17.5622 11C17.5622 10.4477 17.0715 10 16.4662 10H9.8904Z" fill="#107EFF"/>
<path d="M14.2745 17C14.2745 17.5523 13.7838 18 13.1785 18C12.5732 18 12.0825 17.5523 12.0825 17C12.0825 16.4477 12.5732 16 13.1785 16C13.7838 16 14.2745 16.4477 14.2745 17Z" fill="#107EFF"/>
<path fill-rule="evenodd" clip-rule="evenodd" d="M4.41064 5C4.41064 3.34315 5.8827 2 7.69855 2H18.6582C20.4742 2 21.9462 3.34315 21.9462 5V19C21.9462 20.6569 20.4742 22 18.6582 22H7.69855C5.8827 22 4.41064 20.6569 4.41064 19V5ZM7.69855 4H18.6582C19.2636 4 19.7542 4.44772 19.7542 5V19C19.7542 19.5523 19.2636 20 18.6582 20H7.69855C7.09327 20 6.60258 19.5523 6.60258 19V5C6.60258 4.44772 7.09326 4 7.69855 4Z" fill="#107EFF"/>
</svg>
