<svg width="50" height="50" viewBox="0 0 50 50" fill="none" xmlns="http://www.w3.org/2000/svg">
<path d="M24.9998 12.5C26.1505 12.5 27.0832 13.4327 27.0832 14.5833V27.0833C27.0832 28.234 26.1505 29.1667 24.9998 29.1667C23.8492 29.1667 22.9165 28.234 22.9165 27.0833V14.5833C22.9165 13.4327 23.8492 12.5 24.9998 12.5Z" fill="#FF5963"/>
<path d="M24.9998 33.3333C23.8492 33.3333 22.9165 34.2661 22.9165 35.4167C22.9165 36.5673 23.8492 37.5 24.9998 37.5C26.1505 37.5 27.0832 36.5673 27.0832 35.4167C27.0832 34.2661 26.1505 33.3333 24.9998 33.3333Z" fill="#FF5963"/>
<path fill-rule="evenodd" clip-rule="evenodd" d="M24.9998 4.16666C13.4939 4.16666 4.1665 13.4941 4.1665 25C4.1665 36.5058 13.4939 45.8333 24.9998 45.8333C36.5057 45.8333 45.8332 36.5058 45.8332 25C45.8332 13.4941 36.5057 4.16666 24.9998 4.16666ZM8.33317 25C8.33317 34.2048 15.7951 41.6667 24.9998 41.6667C34.2046 41.6667 41.6665 34.2048 41.6665 25C41.6665 15.7952 34.2046 8.33332 24.9998 8.33332C15.7951 8.33332 8.33317 15.7952 8.33317 25Z" fill="#FF5963"/>
</svg>
