<svg xmlns="http://www.w3.org/2000/svg" version="1.1" xmlns:xlink="http://www.w3.org/1999/xlink" xmlns:svgjs="http://svgjs.dev/svgjs" width="180" height="70" preserveAspectRatio="none" viewBox="0 0 180 70"><g mask="url(&quot;#SvgjsMask1044&quot;)" fill="none"><path d="M3 70L73 0L80.5 0L10.5 70z" fill="url(&quot;#SvgjsLinearGradient1045&quot;)"></path><path d="M42.6 70L112.6 0L132.1 0L62.1 70z" fill="url(&quot;#SvgjsLinearGradient1045&quot;)"></path><path d="M83.2 70L153.2 0L193.7 0L123.7 70z" fill="url(&quot;#SvgjsLinearGradient1045&quot;)"></path><path d="M174 70L104 0L59 0L129 70z" fill="url(&quot;#SvgjsLinearGradient1046&quot;)"></path><path d="M136.4 70L66.4 0L31.900000000000006 0L101.9 70z" fill="url(&quot;#SvgjsLinearGradient1046&quot;)"></path><path d="M93.8 70L23.799999999999997 0L16.299999999999997 0L86.3 70z" fill="url(&quot;#SvgjsLinearGradient1046&quot;)"></path><path d="M141.6606220146891 70L180 31.660622014689096L180 70z" fill="url(&quot;#SvgjsLinearGradient1045&quot;)"></path><path d="M0 70L38.339377985310904 70L 0 31.660622014689096z" fill="url(&quot;#SvgjsLinearGradient1046&quot;)"></path></g><defs><mask id="SvgjsMask1044"><rect width="180" height="70" fill="#ffffff"></rect></mask><linearGradient x1="0%" y1="100%" x2="100%" y2="0%" id="SvgjsLinearGradient1045"><stop stop-color="rgba(255, 255, 255, 0.1)" offset="0"></stop><stop stop-opacity="0" stop-color="rgba(255, 255, 255, 0.1)" offset="0.66"></stop></linearGradient><linearGradient x1="100%" y1="100%" x2="0%" y2="0%" id="SvgjsLinearGradient1046"><stop stop-color="rgba(255, 255, 255, 0.1)" offset="0"></stop><stop stop-opacity="0" stop-color="rgba(255, 255, 255, 0.1)" offset="0.66"></stop></linearGradient></defs></svg>