<svg width="39" height="39" viewBox="0 0 39 39" fill="#CCA43B" xmlns="http://www.w3.org/2000/svg">
<path d="M25.0627 13.6455C25.0627 15.4368 21.6516 16.8888 17.4443 16.8888C13.2358 16.8888 9.82471 15.4367 9.82471 13.6455C9.82471 11.8531 13.2358 10.3999 17.4443 10.3999C21.6516 10.3998 25.0627 11.853 25.0627 13.6455Z" />
<path d="M9.82478 35.7556C9.82478 37.548 13.2358 39 17.4443 39C21.6516 39 25.0627 37.548 25.0627 35.7556V34.9509C25.0627 34.7034 24.939 34.4725 24.7307 34.3344C24.5248 34.1988 24.2629 34.1749 24.0344 34.2725C24.0344 34.2725 21.6517 35.7447 17.4443 35.7447C13.2358 35.7447 10.8519 34.2725 10.8519 34.2725C10.6246 34.1749 10.3627 34.1987 10.1556 34.3344C9.94849 34.4725 9.82471 34.7034 9.82471 34.9509L9.82478 35.7556Z" />
<path d="M9.82478 30.2438C9.82478 32.0362 13.2358 33.4871 17.4443 33.4871C21.6516 33.4871 25.0627 32.0362 25.0627 30.2438V29.4381C25.0627 29.1905 24.939 28.9596 24.7307 28.8215C24.5248 28.6859 24.2629 28.662 24.0344 28.7596C24.0344 28.7596 21.6517 30.2319 17.4443 30.2319C13.2358 30.2319 10.8519 28.7596 10.8519 28.7596C10.6246 28.662 10.3627 28.6858 10.1556 28.8215C9.94849 28.9596 9.82471 29.1905 9.82471 29.4381L9.82478 30.2438Z" />
<path d="M9.82478 24.7321C9.82478 26.5245 13.2358 27.9753 17.4443 27.9753C21.6516 27.9753 25.0627 26.5245 25.0627 24.7321V23.9251C25.0627 23.6776 24.939 23.4467 24.7307 23.3086C24.5248 23.1729 24.2629 23.1491 24.0344 23.2467C24.0344 23.2467 21.6517 24.7201 17.4443 24.7201C13.2358 24.7201 10.8519 23.2467 10.8519 23.2467C10.6246 23.1491 10.3627 23.1729 10.1556 23.3086C9.94849 23.4467 9.82471 23.6776 9.82471 23.9251L9.82478 24.7321Z" />
<path d="M9.82478 19.2192C9.82478 21.0116 13.2358 22.4636 17.4443 22.4636C21.6516 22.4636 25.0627 21.0116 25.0627 19.2192V18.4146C25.0627 18.1658 24.939 17.9361 24.7307 17.798C24.5248 17.6624 24.2629 17.6385 24.0344 17.7361C24.0344 17.7361 21.6517 19.2072 17.4443 19.2072C13.2358 19.2072 10.8519 17.7361 10.8519 17.7361C10.6246 17.6385 10.3627 17.6623 10.1556 17.798C9.94849 17.9361 9.82471 18.1658 9.82471 18.4146L9.82478 19.2192Z" />
<path d="M36.9147 7.11489C36.9147 8.90493 33.5037 10.357 29.2963 10.357C25.0878 10.357 21.6768 8.90493 21.6768 7.11489C21.6768 5.32127 25.0878 3.87042 29.2963 3.87042C33.5037 3.8705 36.9147 5.32127 36.9147 7.11489Z" />
<path d="M36.9121 28.4169V29.2227C36.9121 31.0151 33.5011 32.4659 29.2996 32.4659C28.3118 32.4659 27.3763 32.3874 26.5122 32.2421V28.9834C27.3251 29.1215 28.2546 29.2167 29.2996 29.2167C33.501 29.2167 35.8873 27.7433 35.8873 27.7433C36.1134 27.6409 36.3741 27.6694 36.5847 27.8004C36.7883 27.9384 36.9121 28.1717 36.9121 28.4169Z" />
<path d="M36.9121 22.9087V23.7157C36.9121 25.5069 33.5011 26.9578 29.2996 26.9578C28.3118 26.9578 27.3763 26.8792 26.5122 26.734V23.4681C27.3251 23.6062 28.2546 23.7014 29.2996 23.7014C33.501 23.7014 35.8873 22.2279 35.8873 22.2279C36.1134 22.1339 36.3741 22.1541 36.5847 22.2922C36.7883 22.4303 36.9121 22.6564 36.9121 22.9087Z" />
<path d="M36.9121 17.3958V18.2004C36.9121 19.9928 33.5011 21.4448 29.2996 21.4448C28.3118 21.4448 27.3763 21.3639 26.5122 21.2187V17.9528C27.3251 18.0909 28.2546 18.1861 29.2996 18.1861C33.501 18.1861 35.8873 16.7127 35.8873 16.7127C36.1134 16.6187 36.3741 16.6401 36.5847 16.7793C36.7883 16.915 36.9121 17.1482 36.9121 17.3958Z" />
<path d="M36.9121 11.8805V12.6851C36.9121 14.4775 33.5011 15.9283 29.2996 15.9283C28.3118 15.9283 27.3763 15.8486 26.5122 15.7045V13.6431C26.5122 13.1932 26.4182 12.7802 26.2373 12.3945C27.1086 12.5612 28.1309 12.6778 29.2996 12.6778C32.8833 12.6778 35.1482 11.6043 35.7349 11.2924C35.8373 11.2353 35.8873 11.2044 35.8873 11.2044C36.1134 11.1032 36.3741 11.1329 36.5847 11.2627C36.6787 11.3281 36.7585 11.4091 36.8097 11.509C36.8752 11.6186 36.9121 11.7495 36.9121 11.8805Z" />
<path d="M17.3229 3.24447C17.3229 5.03572 13.9106 6.48657 9.70337 6.48657C5.49609 6.48657 2.08496 5.03565 2.08496 3.24447C2.08496 1.45206 5.49601 0 9.70337 0C13.9107 0 17.3229 1.45206 17.3229 3.24447Z" />
<path d="M8.37158 25.2891V28.5478C4.80103 28.2788 2.0874 26.9518 2.0874 25.3557V24.55C2.0874 24.3037 2.21118 24.0716 2.41471 23.9323C2.62419 23.7954 2.88606 23.774 3.111 23.868C3.111 23.868 4.9974 25.0284 8.37158 25.2891Z" />
<path d="M8.37158 19.7833V23.0325C4.80103 22.7647 2.0874 21.4376 2.0874 19.8404V19.0358C2.0874 18.7883 2.21118 18.555 2.41471 18.4193C2.62419 18.2872 2.88606 18.2574 3.111 18.3598C3.111 18.3598 4.9974 19.5214 8.37158 19.7833Z" />
<path d="M8.37158 14.268V17.5256C4.80103 17.2566 2.0874 15.9283 2.0874 14.3323V13.5277C2.0874 13.2801 2.21118 13.048 2.41471 12.9111C2.62419 12.7719 2.88606 12.7505 3.111 12.8445C3.111 12.8445 4.9974 14.0061 8.37158 14.268Z" />
<path d="M17.3194 8.01234V8.81694C17.3194 8.86219 17.3194 8.905 17.3123 8.94788C13.7131 8.97881 10.0986 10.0297 8.84408 12.04C5.04142 11.8579 2.0874 10.4856 2.0874 8.81694V8.01234C2.0874 7.76478 2.21118 7.5339 2.41471 7.3958C2.62419 7.2577 2.88606 7.2363 3.111 7.33745C3.111 7.33745 5.49853 8.8097 9.70703 8.8097C13.9084 8.8097 16.2959 7.33745 16.2959 7.33745C16.4197 7.27911 16.5578 7.26486 16.6946 7.27911C16.797 7.29343 16.8981 7.33745 16.9933 7.39573C17.1671 7.51235 17.2754 7.69325 17.3052 7.89564C17.3194 7.93259 17.3194 7.97539 17.3194 8.01234Z" />
<path d="M25.0627 13.6455C25.0627 15.4368 21.6516 16.8888 17.4443 16.8888C13.2358 16.8888 9.82471 15.4367 9.82471 13.6455C9.82471 11.8531 13.2358 10.3999 17.4443 10.3999C21.6516 10.3998 25.0627 11.853 25.0627 13.6455Z" />
</svg>
