<svg xmlns="http://www.w3.org/2000/svg" version="1.1" xmlns:xlink="http://www.w3.org/1999/xlink" xmlns:svgjs="http://svgjs.dev/svgjs" width="660" height="423" preserveAspectRatio="none" viewBox="0 0 660 423"><g mask="url(&quot;#SvgjsMask1019&quot;)" fill="none"><path d="M215.32 464.46C302.1 433.46 293.29 203.35 443.76 175.2 594.24 147.05 607.97 60.21 672.21 56.76" stroke="rgba(204, 164, 59, 1)" stroke-width="2"></path><path d="M196.45 465.56C270.97 421.44 206.55 186.77 367.31 164.25 528.08 141.73 620.22 67.9 709.04 66.96" stroke="rgba(204, 164, 59, 1)" stroke-width="2"></path><path d="M316.33 497.31C362.78 482.43 317.39 371.82 441.99 348.06 566.6 324.3 615.18 168.04 693.32 157.71" stroke="rgba(204, 164, 59, 1)" stroke-width="2"></path><path d="M90.04 448.7C162.42 430.51 185.99 236.58 297.15 233.73 408.32 230.88 400.71 286.6 504.27 286.6 607.82 286.6 657.94 234.15 711.38 233.73" stroke="rgba(204, 164, 59, 1)" stroke-width="2"></path><path d="M243.46 437.72C288.64 431.01 253.47 340.87 386.2 323.67 518.93 306.47 584.11 126.94 671.67 116.4" stroke="rgba(204, 164, 59, 1)" stroke-width="2"></path></g><defs><mask id="SvgjsMask1019"><rect width="660" height="423" fill="#ffffff"></rect></mask></defs></svg>