<svg width="201" height="100" viewBox="0 0 201 100" fill="none" xmlns="http://www.w3.org/2000/svg">
<g clip-path="url(#clip0_15_8)">
<path d="M42.0883 38.598C41.8881 38.601 41.6894 38.5641 41.5036 38.4896C41.3178 38.415 41.1487 38.3043 41.0061 38.1638C40.8635 38.0233 40.7503 37.8558 40.673 37.6712C40.5957 37.4865 40.5559 37.2883 40.5559 37.0881C40.5559 36.888 40.5957 36.6898 40.673 36.5051C40.7503 36.3205 40.8635 36.153 41.0061 36.0125C41.1487 35.872 41.3178 35.7613 41.5036 35.6867C41.6894 35.6122 41.8881 35.5753 42.0883 35.5783C42.4849 35.5842 42.8632 35.7459 43.1415 36.0284C43.4198 36.3109 43.5759 36.6916 43.5759 37.0881C43.5759 37.4847 43.4198 37.8654 43.1415 38.1479C42.8632 38.4304 42.4849 38.5921 42.0883 38.598ZM30.0883 13.2646C30.2885 13.2676 30.4872 13.2308 30.673 13.1562C30.8588 13.0817 31.0279 12.9709 31.1705 12.8304C31.3131 12.6899 31.4263 12.5225 31.5036 12.3378C31.5809 12.1532 31.6207 11.955 31.6207 11.7548C31.6207 11.5546 31.5809 11.3564 31.5036 11.1718C31.4263 10.9871 31.3131 10.8197 31.1705 10.6792C31.0279 10.5387 30.8588 10.4279 30.673 10.3534C30.4872 10.2789 30.2885 10.242 30.0883 10.245C29.6918 10.2509 29.3134 10.4125 29.0351 10.695C28.7568 10.9775 28.6007 11.3582 28.6007 11.7548C28.6007 12.1514 28.7568 12.5321 29.0351 12.8146C29.3134 13.0971 29.6918 13.2588 30.0883 13.2646ZM11.4216 43.5783C11.2233 43.5783 11.027 43.6174 10.8438 43.6933C10.6606 43.7692 10.4942 43.8805 10.354 44.0207C10.2138 44.1609 10.1025 44.3274 10.0267 44.5106C9.95082 44.6938 9.91178 44.8902 9.9118 45.0885C9.91183 45.2868 9.9509 45.4831 10.0268 45.6663C10.1027 45.8495 10.214 46.016 10.3542 46.1562C10.4944 46.2964 10.6609 46.4076 10.8441 46.4834C11.0273 46.5593 11.2237 46.5983 11.422 46.5983C11.8224 46.5983 12.2065 46.4391 12.4897 46.1559C12.7728 45.8727 12.9318 45.4886 12.9318 45.0881C12.9318 44.6877 12.7726 44.3036 12.4894 44.0205C12.2062 43.7373 11.8221 43.5783 11.4216 43.5783ZM16.0883 53.755C16.0883 49.3436 19.677 45.755 24.0883 45.755C28.4996 45.755 32.0883 49.3436 32.0883 53.755C32.0883 58.1663 28.4996 61.755 24.0883 61.755C19.677 61.755 16.0883 58.1663 16.0883 53.755ZM18.755 53.755C18.755 56.6963 21.147 59.0883 24.0883 59.0883C27.0296 59.0883 29.4216 56.6963 29.4216 53.755C29.4216 50.8136 27.0296 48.4216 24.0883 48.4216C21.147 48.4216 18.755 50.8136 18.755 53.755ZM88.0883 53.755C88.0883 58.1663 84.4996 61.755 80.0883 61.755C75.677 61.755 72.0883 58.1663 72.0883 53.755C72.0883 49.3436 75.677 45.755 80.0883 45.755C84.4996 45.755 88.0883 49.3433 88.0883 53.755ZM85.4216 53.755C85.4216 50.8136 83.0296 48.4216 80.0883 48.4216C77.147 48.4216 74.755 50.8136 74.755 53.755C74.755 56.6963 77.147 59.0883 80.0883 59.0883C83.0296 59.0883 85.4216 56.6963 85.4216 53.755ZM88.0883 81.755C88.0883 86.1663 84.4996 89.755 80.0883 89.755C76.132 89.755 72.8463 86.866 72.2086 83.0883H59.9676C59.33 86.866 56.0443 89.755 52.088 89.755C48.1316 89.755 44.846 86.866 44.2083 83.0883H31.9676C31.33 86.866 28.0443 89.755 24.088 89.755C19.6766 89.755 16.088 86.1663 16.088 81.755C16.088 77.3437 19.6766 73.755 24.088 73.755C25.813 73.755 27.408 74.3093 28.716 75.2413L45.5743 58.383C44.6423 57.075 44.088 55.48 44.088 53.755C44.088 49.3436 47.6766 45.755 52.088 45.755C53.813 45.755 55.408 46.3093 56.716 47.2413L73.5743 30.383C72.8752 29.4024 72.4081 28.2759 72.2083 27.0883H59.9673C59.3296 30.866 56.044 33.755 52.0876 33.755C48.1313 33.755 44.8456 30.866 44.208 27.0883H31.9676C31.33 30.866 28.0443 33.755 24.088 33.755C19.6766 33.755 16.088 30.1663 16.088 25.755C16.088 21.3436 19.6766 17.755 24.088 17.755C28.0443 17.755 31.33 20.644 31.9676 24.4216H44.2086C44.8463 20.644 48.132 17.755 52.0883 17.755C56.0446 17.755 59.3303 20.644 59.968 24.4216H72.209C72.8466 20.644 76.1323 17.755 80.0886 17.755C84.5 17.755 88.0886 21.3436 88.0886 25.755C88.0886 30.1663 84.5 33.755 80.0886 33.755C78.3636 33.755 76.7686 33.2006 75.4606 32.2686L58.6023 49.127C59.5343 50.435 60.0886 52.03 60.0886 53.755C60.0886 58.1663 56.5 61.755 52.0886 61.755C50.3636 61.755 48.7686 61.2006 47.4606 60.2686L30.6016 77.1266C31.3007 78.1072 31.7678 79.2338 31.9676 80.4213H44.2086C44.8463 76.6437 48.132 73.7547 52.0883 73.7547C56.0446 73.7547 59.3303 76.6437 59.968 80.4213H72.209C72.8466 76.6437 76.1323 73.7547 80.0886 73.7547C84.4996 73.755 88.0883 77.3433 88.0883 81.755ZM29.4216 25.755C29.4216 22.8136 27.0296 20.4216 24.0883 20.4216C21.147 20.4216 18.755 22.8136 18.755 25.755C18.755 28.6963 21.147 31.0883 24.0883 31.0883C27.0296 31.0883 29.4216 28.6963 29.4216 25.755ZM57.4216 25.755C57.4216 22.8136 55.0296 20.4216 52.0883 20.4216C49.147 20.4216 46.755 22.8136 46.755 25.755C46.755 28.6963 49.147 31.0883 52.0883 31.0883C55.0296 31.0883 57.4216 28.6963 57.4216 25.755ZM57.4216 81.755C57.4216 78.8136 55.0296 76.4216 52.0883 76.4216C49.147 76.4216 46.755 78.8136 46.755 81.755C46.755 84.6963 49.147 87.0883 52.0883 87.0883C55.0296 87.0883 57.4216 84.6963 57.4216 81.755ZM85.4216 81.755C85.4216 78.8136 83.0296 76.4216 80.0883 76.4216C77.147 76.4216 74.755 78.8136 74.755 81.755C74.755 84.6963 77.147 87.0883 80.0883 87.0883C83.0296 87.0883 85.4216 84.6963 85.4216 81.755Z" fill="url(#paint0_linear_15_8)"/>
</g>
<path d="M127.136 18.0909H131.364V41.2045C131.364 43.5909 130.801 45.7216 129.676 47.5966C128.563 49.4602 126.989 50.9318 124.955 52.0114C122.92 53.0795 120.534 53.6136 117.795 53.6136C115.057 53.6136 112.67 53.0795 110.636 52.0114C108.602 50.9318 107.023 49.4602 105.898 47.5966C104.784 45.7216 104.227 43.5909 104.227 41.2045V18.0909H108.455V40.8636C108.455 42.5682 108.83 44.0852 109.58 45.4148C110.33 46.733 111.398 47.7727 112.784 48.5341C114.182 49.2841 115.852 49.6591 117.795 49.6591C119.739 49.6591 121.409 49.2841 122.807 48.5341C124.205 47.7727 125.273 46.733 126.011 45.4148C126.761 44.0852 127.136 42.5682 127.136 40.8636V18.0909ZM139.805 53V18.0909H144.033V49.25H160.26V53H139.805ZM189.714 18.0909H193.942V41.2045C193.942 43.5909 193.379 45.7216 192.254 47.5966C191.141 49.4602 189.567 50.9318 187.533 52.0114C185.499 53.0795 183.112 53.6136 180.374 53.6136C177.635 53.6136 175.249 53.0795 173.214 52.0114C171.18 50.9318 169.601 49.4602 168.476 47.5966C167.362 45.7216 166.805 43.5909 166.805 41.2045V18.0909H171.033V40.8636C171.033 42.5682 171.408 44.0852 172.158 45.4148C172.908 46.733 173.976 47.7727 175.362 48.5341C176.76 49.2841 178.43 49.6591 180.374 49.6591C182.317 49.6591 183.987 49.2841 185.385 48.5341C186.783 47.7727 187.851 46.733 188.589 45.4148C189.339 44.0852 189.714 42.5682 189.714 40.8636V18.0909Z" fill="url(#paint1_linear_15_8)"/>
<path d="M115.966 87V66.6364H122.847C124.444 66.6364 125.75 66.9247 126.764 67.5014C127.785 68.0715 128.541 68.8438 129.031 69.8182C129.522 70.7926 129.767 71.8797 129.767 73.0795C129.767 74.2794 129.522 75.3698 129.031 76.3509C128.547 77.3319 127.798 78.1141 126.784 78.6974C125.77 79.2741 124.471 79.5625 122.886 79.5625H117.955V77.375H122.807C123.901 77.375 124.779 77.1861 125.442 76.8082C126.105 76.4304 126.585 75.92 126.884 75.277C127.188 74.6274 127.341 73.8949 127.341 73.0795C127.341 72.2642 127.188 71.535 126.884 70.892C126.585 70.2491 126.101 69.7453 125.432 69.3807C124.762 69.0095 123.874 68.8239 122.767 68.8239H118.432V87H115.966ZM150.921 76.8182C150.921 78.9659 150.533 80.822 149.758 82.3864C148.982 83.9508 147.918 85.1572 146.566 86.0057C145.214 86.8542 143.669 87.2784 141.933 87.2784C140.196 87.2784 138.651 86.8542 137.299 86.0057C135.947 85.1572 134.883 83.9508 134.107 82.3864C133.332 80.822 132.944 78.9659 132.944 76.8182C132.944 74.6705 133.332 72.8144 134.107 71.25C134.883 69.6856 135.947 68.4792 137.299 67.6307C138.651 66.7822 140.196 66.358 141.933 66.358C143.669 66.358 145.214 66.7822 146.566 67.6307C147.918 68.4792 148.982 69.6856 149.758 71.25C150.533 72.8144 150.921 74.6705 150.921 76.8182ZM148.535 76.8182C148.535 75.0549 148.24 73.5668 147.65 72.3537C147.067 71.1406 146.274 70.2225 145.273 69.5994C144.279 68.9763 143.165 68.6648 141.933 68.6648C140.7 68.6648 139.583 68.9763 138.582 69.5994C137.587 70.2225 136.795 71.1406 136.205 72.3537C135.622 73.5668 135.33 75.0549 135.33 76.8182C135.33 78.5814 135.622 80.0696 136.205 81.2827C136.795 82.4957 137.587 83.4138 138.582 84.0369C139.583 84.66 140.7 84.9716 141.933 84.9716C143.165 84.9716 144.279 84.66 145.273 84.0369C146.274 83.4138 147.067 82.4957 147.65 81.2827C148.24 80.0696 148.535 78.5814 148.535 76.8182ZM172.249 76.8182C172.249 78.9659 171.862 80.822 171.086 82.3864C170.31 83.9508 169.246 85.1572 167.894 86.0057C166.542 86.8542 164.997 87.2784 163.261 87.2784C161.524 87.2784 159.979 86.8542 158.627 86.0057C157.275 85.1572 156.211 83.9508 155.435 82.3864C154.66 80.822 154.272 78.9659 154.272 76.8182C154.272 74.6705 154.66 72.8144 155.435 71.25C156.211 69.6856 157.275 68.4792 158.627 67.6307C159.979 66.7822 161.524 66.358 163.261 66.358C164.997 66.358 166.542 66.7822 167.894 67.6307C169.246 68.4792 170.31 69.6856 171.086 71.25C171.862 72.8144 172.249 74.6705 172.249 76.8182ZM169.863 76.8182C169.863 75.0549 169.568 73.5668 168.978 72.3537C168.395 71.1406 167.603 70.2225 166.602 69.5994C165.607 68.9763 164.494 68.6648 163.261 68.6648C162.028 68.6648 160.911 68.9763 159.91 69.5994C158.915 70.2225 158.123 71.1406 157.533 72.3537C156.95 73.5668 156.658 75.0549 156.658 76.8182C156.658 78.5814 156.95 80.0696 157.533 81.2827C158.123 82.4957 158.915 83.4138 159.91 84.0369C160.911 84.66 162.028 84.9716 163.261 84.9716C164.494 84.9716 165.607 84.66 166.602 84.0369C167.603 83.4138 168.395 82.4957 168.978 81.2827C169.568 80.0696 169.863 78.5814 169.863 76.8182ZM176.396 87V66.6364H178.862V84.8125H188.327V87H176.396Z" fill="#E5E5E5"/>
<defs>
<linearGradient id="paint0_linear_15_8" x1="18.434" y1="87.4093" x2="85.7426" y2="20.1007" gradientUnits="userSpaceOnUse">
<stop stop-color="#107EFF"/>
<stop offset="0.0001" stop-color="#107EFF"/>
<stop offset="1" stop-color="#8F16FF"/>
</linearGradient>
<linearGradient id="paint1_linear_15_8" x1="150.5" y1="7" x2="150.5" y2="88" gradientUnits="userSpaceOnUse">
<stop offset="0.101428" stop-color="#8F16FF"/>
<stop offset="1" stop-color="#107EFF"/>
</linearGradient>
<clipPath id="clip0_15_8">
<rect width="100" height="100" fill="white"/>
</clipPath>
</defs>
</svg>
