<svg width="201" height="100" viewBox="0 0 201 100" fill="none" xmlns="http://www.w3.org/2000/svg">
<g clip-path="url(#clip0_15_8)">
<path d="M42.0883 38.598C41.8881 38.601 41.6894 38.5641 41.5036 38.4896C41.3178 38.415 41.1487 38.3043 41.0061 38.1638C40.8635 38.0233 40.7503 37.8558 40.673 37.6712C40.5957 37.4865 40.5559 37.2883 40.5559 37.0881C40.5559 36.888 40.5957 36.6898 40.673 36.5051C40.7503 36.3205 40.8635 36.153 41.0061 36.0125C41.1487 35.872 41.3178 35.7613 41.5036 35.6867C41.6894 35.6122 41.8881 35.5753 42.0883 35.5783C42.4849 35.5842 42.8632 35.7459 43.1415 36.0284C43.4198 36.3109 43.5759 36.6916 43.5759 37.0881C43.5759 37.4847 43.4198 37.8654 43.1415 38.1479C42.8632 38.4304 42.4849 38.5921 42.0883 38.598ZM30.0883 13.2646C30.2885 13.2676 30.4872 13.2308 30.673 13.1562C30.8588 13.0817 31.0279 12.9709 31.1705 12.8304C31.3131 12.6899 31.4263 12.5225 31.5036 12.3378C31.5809 12.1532 31.6207 11.955 31.6207 11.7548C31.6207 11.5546 31.5809 11.3564 31.5036 11.1718C31.4263 10.9871 31.3131 10.8197 31.1705 10.6792C31.0279 10.5387 30.8588 10.4279 30.673 10.3534C30.4872 10.2789 30.2885 10.242 30.0883 10.245C29.6918 10.2509 29.3134 10.4125 29.0351 10.695C28.7568 10.9775 28.6007 11.3582 28.6007 11.7548C28.6007 12.1514 28.7568 12.5321 29.0351 12.8146C29.3134 13.0971 29.6918 13.2588 30.0883 13.2646ZM11.4216 43.5783C11.2233 43.5783 11.027 43.6174 10.8438 43.6933C10.6606 43.7692 10.4942 43.8805 10.354 44.0207C10.2138 44.1609 10.1025 44.3274 10.0267 44.5106C9.95082 44.6938 9.91178 44.8902 9.9118 45.0885C9.91183 45.2868 9.9509 45.4831 10.0268 45.6663C10.1027 45.8495 10.214 46.016 10.3542 46.1562C10.4944 46.2964 10.6609 46.4076 10.8441 46.4834C11.0273 46.5593 11.2237 46.5983 11.422 46.5983C11.8224 46.5983 12.2065 46.4391 12.4897 46.1559C12.7728 45.8727 12.9318 45.4886 12.9318 45.0881C12.9318 44.6877 12.7726 44.3036 12.4894 44.0205C12.2062 43.7373 11.8221 43.5783 11.4216 43.5783ZM16.0883 53.755C16.0883 49.3436 19.677 45.755 24.0883 45.755C28.4996 45.755 32.0883 49.3436 32.0883 53.755C32.0883 58.1663 28.4996 61.755 24.0883 61.755C19.677 61.755 16.0883 58.1663 16.0883 53.755ZM18.755 53.755C18.755 56.6963 21.147 59.0883 24.0883 59.0883C27.0296 59.0883 29.4216 56.6963 29.4216 53.755C29.4216 50.8136 27.0296 48.4216 24.0883 48.4216C21.147 48.4216 18.755 50.8136 18.755 53.755ZM88.0883 53.755C88.0883 58.1663 84.4996 61.755 80.0883 61.755C75.677 61.755 72.0883 58.1663 72.0883 53.755C72.0883 49.3436 75.677 45.755 80.0883 45.755C84.4996 45.755 88.0883 49.3433 88.0883 53.755ZM85.4216 53.755C85.4216 50.8136 83.0296 48.4216 80.0883 48.4216C77.147 48.4216 74.755 50.8136 74.755 53.755C74.755 56.6963 77.147 59.0883 80.0883 59.0883C83.0296 59.0883 85.4216 56.6963 85.4216 53.755ZM88.0883 81.755C88.0883 86.1663 84.4996 89.755 80.0883 89.755C76.132 89.755 72.8463 86.866 72.2086 83.0883H59.9676C59.33 86.866 56.0443 89.755 52.088 89.755C48.1316 89.755 44.846 86.866 44.2083 83.0883H31.9676C31.33 86.866 28.0443 89.755 24.088 89.755C19.6766 89.755 16.088 86.1663 16.088 81.755C16.088 77.3437 19.6766 73.755 24.088 73.755C25.813 73.755 27.408 74.3093 28.716 75.2413L45.5743 58.383C44.6423 57.075 44.088 55.48 44.088 53.755C44.088 49.3436 47.6766 45.755 52.088 45.755C53.813 45.755 55.408 46.3093 56.716 47.2413L73.5743 30.383C72.8752 29.4024 72.4081 28.2759 72.2083 27.0883H59.9673C59.3296 30.866 56.044 33.755 52.0876 33.755C48.1313 33.755 44.8456 30.866 44.208 27.0883H31.9676C31.33 30.866 28.0443 33.755 24.088 33.755C19.6766 33.755 16.088 30.1663 16.088 25.755C16.088 21.3436 19.6766 17.755 24.088 17.755C28.0443 17.755 31.33 20.644 31.9676 24.4216H44.2086C44.8463 20.644 48.132 17.755 52.0883 17.755C56.0446 17.755 59.3303 20.644 59.968 24.4216H72.209C72.8466 20.644 76.1323 17.755 80.0886 17.755C84.5 17.755 88.0886 21.3436 88.0886 25.755C88.0886 30.1663 84.5 33.755 80.0886 33.755C78.3636 33.755 76.7686 33.2006 75.4606 32.2686L58.6023 49.127C59.5343 50.435 60.0886 52.03 60.0886 53.755C60.0886 58.1663 56.5 61.755 52.0886 61.755C50.3636 61.755 48.7686 61.2006 47.4606 60.2686L30.6016 77.1266C31.3007 78.1072 31.7678 79.2338 31.9676 80.4213H44.2086C44.8463 76.6437 48.132 73.7547 52.0883 73.7547C56.0446 73.7547 59.3303 76.6437 59.968 80.4213H72.209C72.8466 76.6437 76.1323 73.7547 80.0886 73.7547C84.4996 73.755 88.0883 77.3433 88.0883 81.755ZM29.4216 25.755C29.4216 22.8136 27.0296 20.4216 24.0883 20.4216C21.147 20.4216 18.755 22.8136 18.755 25.755C18.755 28.6963 21.147 31.0883 24.0883 31.0883C27.0296 31.0883 29.4216 28.6963 29.4216 25.755ZM57.4216 25.755C57.4216 22.8136 55.0296 20.4216 52.0883 20.4216C49.147 20.4216 46.755 22.8136 46.755 25.755C46.755 28.6963 49.147 31.0883 52.0883 31.0883C55.0296 31.0883 57.4216 28.6963 57.4216 25.755ZM57.4216 81.755C57.4216 78.8136 55.0296 76.4216 52.0883 76.4216C49.147 76.4216 46.755 78.8136 46.755 81.755C46.755 84.6963 49.147 87.0883 52.0883 87.0883C55.0296 87.0883 57.4216 84.6963 57.4216 81.755ZM85.4216 81.755C85.4216 78.8136 83.0296 76.4216 80.0883 76.4216C77.147 76.4216 74.755 78.8136 74.755 81.755C74.755 84.6963 77.147 87.0883 80.0883 87.0883C83.0296 87.0883 85.4216 84.6963 85.4216 81.755Z" fill="url(#paint0_linear_15_8)"/>
</g>
<path d="M106.909 90V69.6364H114.167C115.752 69.6364 117.064 69.9247 118.105 70.5014C119.146 71.0781 119.924 71.8669 120.441 72.8679C120.958 73.8622 121.217 74.9825 121.217 76.2287C121.217 77.4815 120.955 78.6084 120.432 79.6094C119.914 80.6037 119.132 81.3925 118.085 81.9759C117.044 82.5526 115.735 82.8409 114.157 82.8409H109.166V80.2358H113.879C114.88 80.2358 115.692 80.0634 116.315 79.7188C116.938 79.3674 117.396 78.8902 117.687 78.2869C117.979 77.6837 118.125 76.9976 118.125 76.2287C118.125 75.4598 117.979 74.777 117.687 74.1804C117.396 73.5838 116.935 73.1165 116.305 72.7784C115.682 72.4403 114.86 72.2713 113.839 72.2713H109.981V90H106.909ZM147.548 79.8182C147.548 81.9924 147.15 83.8617 146.355 85.4261C145.559 86.9839 144.469 88.1837 143.083 89.0256C141.705 89.8608 140.137 90.2784 138.38 90.2784C136.617 90.2784 135.043 89.8608 133.657 89.0256C132.278 88.1837 131.191 86.9806 130.396 85.4162C129.6 83.8518 129.203 81.9858 129.203 79.8182C129.203 77.6439 129.6 75.7779 130.396 74.2202C131.191 72.6558 132.278 71.456 133.657 70.6207C135.043 69.7789 136.617 69.358 138.38 69.358C140.137 69.358 141.705 69.7789 143.083 70.6207C144.469 71.456 145.559 72.6558 146.355 74.2202C147.15 75.7779 147.548 77.6439 147.548 79.8182ZM144.505 79.8182C144.505 78.161 144.237 76.7656 143.7 75.6321C143.17 74.492 142.44 73.6302 141.512 73.0469C140.591 72.4569 139.547 72.1619 138.38 72.1619C137.207 72.1619 136.16 72.4569 135.238 73.0469C134.317 73.6302 133.588 74.492 133.051 75.6321C132.52 76.7656 132.255 78.161 132.255 79.8182C132.255 81.4754 132.52 82.8741 133.051 84.0142C133.588 85.1477 134.317 86.0095 135.238 86.5994C136.16 87.1828 137.207 87.4744 138.38 87.4744C139.547 87.4744 140.591 87.1828 141.512 86.5994C142.44 86.0095 143.17 85.1477 143.7 84.0142C144.237 82.8741 144.505 81.4754 144.505 79.8182ZM174.107 79.8182C174.107 81.9924 173.71 83.8617 172.914 85.4261C172.119 86.9839 171.028 88.1837 169.643 89.0256C168.264 89.8608 166.696 90.2784 164.94 90.2784C163.177 90.2784 161.602 89.8608 160.217 89.0256C158.838 88.1837 157.751 86.9806 156.955 85.4162C156.16 83.8518 155.762 81.9858 155.762 79.8182C155.762 77.6439 156.16 75.7779 156.955 74.2202C157.751 72.6558 158.838 71.456 160.217 70.6207C161.602 69.7789 163.177 69.358 164.94 69.358C166.696 69.358 168.264 69.7789 169.643 70.6207C171.028 71.456 172.119 72.6558 172.914 74.2202C173.71 75.7779 174.107 77.6439 174.107 79.8182ZM171.065 79.8182C171.065 78.161 170.796 76.7656 170.259 75.6321C169.729 74.492 169 73.6302 168.072 73.0469C167.15 72.4569 166.106 72.1619 164.94 72.1619C163.766 72.1619 162.719 72.4569 161.798 73.0469C160.876 73.6302 160.147 74.492 159.61 75.6321C159.08 76.7656 158.815 78.161 158.815 79.8182C158.815 81.4754 159.08 82.8741 159.61 84.0142C160.147 85.1477 160.876 86.0095 161.798 86.5994C162.719 87.1828 163.766 87.4744 164.94 87.4744C166.106 87.4744 167.15 87.1828 168.072 86.5994C169 86.0095 169.729 85.1477 170.259 84.0142C170.796 82.8741 171.065 81.4754 171.065 79.8182ZM182.978 90V69.6364H186.05V87.3551H195.278V90H182.978Z" fill="#E5E5E5"/>
<path d="M127.136 18.0909H131.364V41.2045C131.364 43.5909 130.801 45.7216 129.676 47.5966C128.563 49.4602 126.989 50.9318 124.955 52.0114C122.92 53.0795 120.534 53.6136 117.795 53.6136C115.057 53.6136 112.67 53.0795 110.636 52.0114C108.602 50.9318 107.023 49.4602 105.898 47.5966C104.784 45.7216 104.227 43.5909 104.227 41.2045V18.0909H108.455V40.8636C108.455 42.5682 108.83 44.0852 109.58 45.4148C110.33 46.733 111.398 47.7727 112.784 48.5341C114.182 49.2841 115.852 49.6591 117.795 49.6591C119.739 49.6591 121.409 49.2841 122.807 48.5341C124.205 47.7727 125.273 46.733 126.011 45.4148C126.761 44.0852 127.136 42.5682 127.136 40.8636V18.0909ZM139.805 53V18.0909H144.033V49.25H160.26V53H139.805ZM189.714 18.0909H193.942V41.2045C193.942 43.5909 193.379 45.7216 192.254 47.5966C191.141 49.4602 189.567 50.9318 187.533 52.0114C185.499 53.0795 183.112 53.6136 180.374 53.6136C177.635 53.6136 175.249 53.0795 173.214 52.0114C171.18 50.9318 169.601 49.4602 168.476 47.5966C167.362 45.7216 166.805 43.5909 166.805 41.2045V18.0909H171.033V40.8636C171.033 42.5682 171.408 44.0852 172.158 45.4148C172.908 46.733 173.976 47.7727 175.362 48.5341C176.76 49.2841 178.43 49.6591 180.374 49.6591C182.317 49.6591 183.987 49.2841 185.385 48.5341C186.783 47.7727 187.851 46.733 188.589 45.4148C189.339 44.0852 189.714 42.5682 189.714 40.8636V18.0909Z" fill="url(#paint1_linear_15_8)"/>
<defs>
<linearGradient id="paint0_linear_15_8" x1="18.434" y1="87.4093" x2="85.7426" y2="20.1007" gradientUnits="userSpaceOnUse">
<stop stop-color="#107EFF"/>
<stop offset="0.0001" stop-color="#107EFF"/>
<stop offset="1" stop-color="#8F16FF"/>
</linearGradient>
<linearGradient id="paint1_linear_15_8" x1="150.5" y1="7" x2="150.5" y2="54" gradientUnits="userSpaceOnUse">
<stop offset="0.291428" stop-color="#8F16FF"/>
<stop offset="1" stop-color="#107EFF"/>
</linearGradient>
<clipPath id="clip0_15_8">
<rect width="100" height="100" fill="white"/>
</clipPath>
</defs>
</svg>
