<svg width="24" height="24" viewBox="0 0 24 24" fill="none" xmlns="http://www.w3.org/2000/svg">
<path d="M16.0002 8.5L13.0771 11.4688C13.0247 11.5221 12.9981 11.5488 12.9746 11.5698C12.5949 11.9097 12.0208 11.9097 11.6411 11.5698C11.6176 11.5488 11.5909 11.5221 11.5383 11.4687C11.4858 11.4154 11.4595 11.3887 11.436 11.3677C11.0564 11.0278 10.482 11.0278 10.1023 11.3677C10.0789 11.3887 10.0527 11.4153 10.0004 11.4684L8 13.5M16.0002 8.5L16 11.5M16.0002 8.5H13" stroke="white" stroke-width="2" stroke-linecap="round" stroke-linejoin="round"/>
<path d="M15 20H9M4 13.8002V8.2002C4 7.08009 4 6.51962 4.21799 6.0918C4.40973 5.71547 4.71547 5.40973 5.0918 5.21799C5.51962 5 6.08009 5 7.2002 5H16.8002C17.9203 5 18.4796 5 18.9074 5.21799C19.2837 5.40973 19.5905 5.71547 19.7822 6.0918C20 6.5192 20 7.07899 20 8.19691V13.8031C20 14.921 20 15.48 19.7822 15.9074C19.5905 16.2837 19.2837 16.5905 18.9074 16.7822C18.48 17 17.921 17 16.8031 17H7.19691C6.07899 17 5.5192 17 5.0918 16.7822C4.71547 16.5905 4.40973 16.2837 4.21799 15.9074C4 15.4796 4 14.9203 4 13.8002Z" stroke="white" stroke-width="2" stroke-linecap="round" stroke-linejoin="round"/>
</svg>
