<svg width="50" height="50" viewBox="0 0 50 50" fill="white" xmlns="http://www.w3.org/2000/svg">
<path d="M26.2188 36.375C25.9063 36.375 25.5312 36.25 25.2812 36L15.2187 25.9375C14.7188 25.4375 14.7188 24.625 15.2187 24.0625L25.2812 14C25.7812 13.5 26.5938 13.5 27.1563 14C27.6563 14.5 27.6563 15.3125 27.1563 15.875L18.0312 25L27.1563 34.125C27.6563 34.625 27.6563 35.4375 27.1563 36C26.9063 36.25 26.5313 36.375 26.2188 36.375ZM33.6562 36.375C33.3437 36.375 32.9687 36.25 32.7187 36L22.6562 25.9375C22.1563 25.4375 22.1563 24.625 22.6562 24.0625L32.7187 14C33.2187 13.5 34.0313 13.5 34.5938 14C35.0938 14.5 35.0938 15.3125 34.5938 15.875L25.4063 25L34.5313 34.125C35.0313 34.625 35.0313 35.4375 34.5313 36C34.3438 36.25 33.9687 36.375 33.6562 36.375Z" />
</svg>
