<svg width="50" height="50" viewBox="0 0 50 50" fill="#fff" xmlns="http://www.w3.org/2000/svg">
<path d="M23.7812 13.625C24.0937 13.625 24.4688 13.75 24.7188 14L34.7813 24.0625C35.2812 24.5625 35.2812 25.375 34.7813 25.9375L24.7188 36C24.2188 36.5 23.4062 36.5 22.8437 36C22.3437 35.5 22.3437 34.6875 22.8437 34.125L31.9688 25L22.8437 15.875C22.3437 15.375 22.3437 14.5625 22.8437 14C23.0937 13.75 23.4687 13.625 23.7812 13.625ZM16.3438 13.625C16.6563 13.625 17.0313 13.75 17.2813 14L27.3438 24.0625C27.8437 24.5625 27.8437 25.375 27.3438 25.9375L17.2813 36C16.7813 36.5 15.9687 36.5 15.4062 36C14.9062 35.5 14.9062 34.6875 15.4062 34.125L24.5937 25L15.4687 15.875C14.9687 15.375 14.9687 14.5625 15.4687 14C15.6562 13.75 16.0313 13.625 16.3438 13.625Z" />
</svg>
