<svg width="509" height="97" viewBox="0 0 509 97" fill="none" xmlns="http://www.w3.org/2000/svg">
<g clip-path="url(#clip0_285_344)">
<path d="M170.85 20.2H198.15C204.73 20.2 210.297 21.2267 214.85 23.28C219.042 25.0425 222.602 28.0339 225.06 31.86C227.361 35.6397 228.54 39.9957 228.46 44.42C228.511 48.8646 227.286 53.2305 224.93 57C222.303 60.982 218.545 64.0882 214.14 65.92C209.313 68.12 203.33 69.2167 196.19 69.21H170.85V20.2ZM195.91 56.74C200.343 56.74 203.75 55.6333 206.13 53.42C207.337 52.2497 208.28 50.8351 208.895 49.2708C209.511 47.7066 209.785 46.0289 209.7 44.35C209.774 42.7916 209.531 41.2343 208.984 39.773C208.437 38.3118 207.599 36.977 206.52 35.85C204.387 33.73 201.177 32.6667 196.89 32.66H188.35V56.74H195.91Z" fill="white"/>
<path d="M269.34 69.13C265.739 68.2275 262.293 66.7881 259.12 64.86V53.24C261.89 55.2549 265.01 56.7399 268.32 57.62C271.942 58.725 275.704 59.3009 279.49 59.33C280.797 59.3998 282.103 59.1742 283.31 58.67C284.17 58.23 284.6 57.67 284.6 57.09C284.609 56.7659 284.552 56.4434 284.432 56.1424C284.311 55.8414 284.13 55.5683 283.9 55.34C283.101 54.7257 282.164 54.317 281.17 54.15L272.77 52.26C267.957 51.14 264.54 49.59 262.52 47.61C261.506 46.5872 260.716 45.3648 260.199 44.0203C259.683 42.6758 259.452 41.2386 259.52 39.8C259.486 37.1927 260.436 34.6684 262.18 32.73C264.248 30.5427 266.855 28.9389 269.74 28.08C273.452 26.9132 277.329 26.3559 281.22 26.43C284.852 26.3959 288.474 26.8192 292 27.69C294.848 28.3648 297.583 29.4495 300.12 30.91V41.91C297.741 40.5299 295.184 39.4834 292.52 38.8C289.634 38.0261 286.658 37.6361 283.67 37.64C279.283 37.64 277.09 38.3867 277.09 39.88C277.083 40.2125 277.174 40.5398 277.352 40.8209C277.53 41.102 277.786 41.3243 278.09 41.46C279.289 41.9696 280.544 42.3322 281.83 42.54L288.83 43.8C293.377 44.6 296.767 46 299 48C301.233 50 302.353 52.9267 302.36 56.78C302.396 58.8062 301.9 60.8065 300.923 62.5819C299.946 64.3573 298.521 65.846 296.79 66.9C293.103 69.3733 287.84 70.6067 281 70.6C277.067 70.6061 273.149 70.1121 269.34 69.13Z" fill="white"/>
<path d="M318.9 67.66C315.158 65.9404 312.004 63.1584 309.83 59.66C307.803 56.2293 306.764 52.3044 306.83 48.32C306.77 44.338 307.864 40.4236 309.98 37.05C312.236 33.6066 315.447 30.8959 319.22 29.25C323.808 27.251 328.778 26.2816 333.78 26.41C340.78 26.41 346.59 27.88 351.21 30.82V43.65C349.453 42.4684 347.532 41.5488 345.51 40.92C343.246 40.2053 340.884 39.851 338.51 39.87C334.17 39.87 330.773 40.6633 328.32 42.25C327.217 42.8655 326.297 43.7622 325.653 44.8487C325.01 45.9353 324.665 47.173 324.655 48.4359C324.645 49.6988 324.969 50.9419 325.595 52.0387C326.222 53.1355 327.127 54.0468 328.22 54.68C330.6 56.2867 334.053 57.09 338.58 57.09C340.917 57.0956 343.241 56.7587 345.48 56.09C347.522 55.5045 349.484 54.6681 351.32 53.6V66C345.909 69.1547 339.732 70.7535 333.47 70.62C328.451 70.7569 323.468 69.7445 318.9 67.66Z" fill="white"/>
<path d="M368.64 67.66C364.856 65.932 361.646 63.1557 359.39 59.66C357.264 56.2374 356.161 52.2787 356.21 48.25C356.142 44.2691 357.248 40.3563 359.39 37C361.658 33.5931 364.854 30.9072 368.6 29.26C377.802 25.5265 388.098 25.5265 397.3 29.26C401.032 30.8946 404.215 33.5674 406.47 36.96C408.597 40.3287 409.693 44.2464 409.62 48.23C409.67 52.2546 408.577 56.2109 406.47 59.64C404.239 63.1381 401.044 65.9164 397.27 67.64C392.747 69.5798 387.877 70.58 382.955 70.58C378.033 70.58 373.163 69.5798 368.64 67.64V67.66ZM389.91 55.24C390.775 54.3472 391.448 53.2869 391.888 52.1245C392.329 50.962 392.526 49.7218 392.47 48.48C392.53 47.2498 392.334 46.0206 391.893 44.8705C391.453 43.7204 390.777 42.6747 389.91 41.8C388.969 40.9374 387.865 40.2725 386.663 39.8448C385.46 39.417 384.184 39.2352 382.91 39.31C381.637 39.243 380.363 39.4286 379.161 39.8559C377.96 40.2832 376.855 40.9439 375.91 41.8C375.046 42.6766 374.374 43.7229 373.935 44.8727C373.496 46.0224 373.3 47.2508 373.36 48.48C373.304 49.7209 373.501 50.9602 373.94 52.1223C374.378 53.2845 375.048 54.3453 375.91 55.24C376.846 56.1134 377.948 56.7892 379.151 57.2274C380.353 57.6655 381.632 57.8568 382.91 57.79C384.189 57.8644 385.47 57.6766 386.673 57.2381C387.877 56.7996 388.979 56.1196 389.91 55.24Z" fill="white"/>
<path d="M451.69 29V44.14C449.6 42.893 447.191 42.2846 444.76 42.39C441.03 42.39 438.15 43.53 436.15 45.79C434.15 48.05 433.15 51.56 433.15 56.32V69.2H416V28.25H432.8V41.25C433.733 36.49 435.24 32.98 437.32 30.72C438.328 29.6087 439.566 28.7292 440.947 28.1422C442.328 27.5553 443.82 27.2747 445.32 27.32C447.56 27.2589 449.771 27.842 451.69 29Z" fill="white"/>
<path d="M508.67 18.8V69.2H491.52V60C490.226 63.2753 487.903 66.0411 484.9 67.88C481.584 69.7688 477.814 70.7098 474 70.6C470.411 70.6836 466.878 69.6985 463.85 67.77C460.917 65.8651 458.581 63.1721 457.11 60C455.504 56.4986 454.704 52.6815 454.77 48.83C454.657 44.8367 455.507 40.8749 457.25 37.28C458.851 33.9872 461.351 31.214 464.46 29.28C467.656 27.3437 471.333 26.3489 475.07 26.41C483.23 26.41 488.713 29.9567 491.52 37.05V18.8H508.67ZM489 55C489.874 54.1397 490.559 53.1068 491.012 51.967C491.465 50.8272 491.675 49.6056 491.63 48.38C491.667 47.1911 491.452 46.0079 490.998 44.9082C490.545 43.8085 489.864 42.8174 489 42C487.038 40.4026 484.585 39.5304 482.055 39.5304C479.525 39.5304 477.072 40.4026 475.11 42C474.248 42.8361 473.572 43.8444 473.126 44.9591C472.679 46.0739 472.473 47.2702 472.52 48.47C472.476 49.6811 472.686 50.888 473.138 52.0127C473.589 53.1375 474.271 54.1551 475.14 55C476.058 55.8541 477.139 56.516 478.317 56.947C479.495 57.378 480.747 57.5694 482 57.51C483.275 57.5804 484.552 57.3946 485.754 56.9635C486.956 56.5324 488.06 55.8648 489 55Z" fill="white"/>
<path d="M107.7 8.07C99.3467 4.24568 90.5282 1.53258 81.4699 0C80.2304 2.21588 79.1088 4.49573 78.1099 6.83C68.461 5.37602 58.6488 5.37602 48.9999 6.83C48.0005 4.49597 46.8789 2.21615 45.6399 0C36.5758 1.54552 27.7515 4.26506 19.3899 8.09C2.7899 32.65 -1.7101 56.6 0.539904 80.21C10.2613 87.3926 21.1423 92.8551 32.7099 96.36C35.3146 92.8568 37.6194 89.1403 39.5999 85.25C35.8382 83.8451 32.2076 82.1117 28.7499 80.07C29.6599 79.41 30.5499 78.73 31.4099 78.07C41.4709 82.8014 52.4519 85.2546 63.5699 85.2546C74.6879 85.2546 85.6689 82.8014 95.7299 78.07C96.5999 78.78 97.4899 79.46 98.3899 80.07C94.9256 82.115 91.2882 83.8517 87.5199 85.26C89.498 89.1485 91.8029 92.8619 94.4099 96.36C105.987 92.8691 116.877 87.4092 126.6 80.22C129.24 52.84 122.09 29.11 107.7 8.07ZM42.4499 65.69C36.1799 65.69 30.9999 60 30.9999 53C30.9999 46 35.9999 40.26 42.4299 40.26C48.8599 40.26 53.9999 46 53.8899 53C53.7799 60 48.8399 65.69 42.4499 65.69ZM84.6899 65.69C78.4099 65.69 73.2499 60 73.2499 53C73.2499 46 78.2499 40.26 84.6899 40.26C91.1299 40.26 96.2299 46 96.1199 53C96.0099 60 91.0799 65.69 84.6899 65.69Z" fill="white"/>
<path d="M242.92 32.61C247.642 32.61 251.47 29.1715 251.47 24.93C251.47 20.6885 247.642 17.25 242.92 17.25C238.198 17.25 234.37 20.6885 234.37 24.93C234.37 29.1715 238.198 32.61 242.92 32.61Z" fill="white"/>
<path d="M234.36 37.9C237.068 39.0383 239.977 39.6247 242.915 39.6247C245.853 39.6247 248.761 39.0383 251.47 37.9V69.42H234.36V37.9Z" fill="white"/>
</g>
<defs>
<clipPath id="clip0_285_344">
<rect width="508.67" height="96.36" fill="white"/>
</clipPath>
</defs>
</svg>
