<svg xmlns="http://www.w3.org/2000/svg" version="1.1" xmlns:xlink="http://www.w3.org/1999/xlink" xmlns:svgjs="http://svgjs.dev/svgjs" width="1230" height="860" preserveAspectRatio="none" viewBox="0 0 1230 860"><g mask="url(&quot;#SvgjsMask1010&quot;)" fill="none"><path d="M0 745.39L10 662.26L20 600.33L30 502.38L40 508.61L50 599L60 699.8L70 634.18L80 697.19L90 757.9L100 758.56L110 744.6L120 818.73L130 855.17L140 756.26L150 834.85L160 805.16L170 840.58L180 823.38L190 799.8L200 741.22L210 642.77L220 674.81L230 654.58L240 564.01L250 523.56L260 595.39L270 609.79L280 599.4L290 655.57L300 757.66L310 672.37L320 590.55L330 545.46L340 453.69L350 513.71L360 591.24L370 697.72L380 705.98L390 767.62L400 810.23L410 722.71L420 697.11L430 673.28L440 708.1L450 782.72L460 754.88L470 846.55L480 831.72L490 740.35L500 797.36L510 736.12L520 762.25L530 671.77L540 744.15L550 671.1L560 616.29L570 552.83L580 503.59L590 571.22L600 674.35L610 587.4L620 692.94L630 676.18L640 706.08L650 737.23L660 719.85L670 768.37L680 756.67L690 818.01L700 816.09L710 761.32L720 851.29L730 842.08L740 764.75L750 738.82L760 656.61L770 751.28L780 818.84L790 848.68L800 744.64L810 656.17L820 716.27L830 617.75L840 670.88L850 761.61L860 771.54L870 761L880 684.89L890 663.03L900 605.04L910 559.69L920 508.87L930 558.99L940 565.48L950 627L960 608.16L970 575.13L980 578.76L990 527.73L1000 624.17L1010 729.35L1020 754.49L1030 755.41L1040 764.21L1050 857.47L1060 838.44L1070 746.14L1080 732.91L1090 747.37L1100 844.13L1110 765.81L1120 796.04L1130 793.29L1140 807.98L1150 739.3L1160 811.37L1170 828.34L1180 749.3L1190 686.06L1200 651.2L1210 730.22L1220 653.82L1230 722.35" stroke="rgba(204, 164, 59, 0.16)" stroke-width="2"></path><path d="M0 745.39L10 662.26L20 600.33L30 502.38L40 508.61L50 599L60 699.8L70 634.18L80 697.19L90 757.9L100 758.56L110 744.6L120 818.73L130 855.17L140 756.26L150 834.85L160 805.16L170 840.58L180 823.38L190 799.8L200 741.22L210 642.77L220 674.81L230 654.58L240 564.01L250 523.56L260 595.39L270 609.79L280 599.4L290 655.57L300 757.66L310 672.37L320 590.55L330 545.46L340 453.69L350 513.71L360 591.24L370 697.72L380 705.98L390 767.62L400 810.23L410 722.71L420 697.11L430 673.28L440 708.1L450 782.72L460 754.88L470 846.55L480 831.72L490 740.35L500 797.36L510 736.12L520 762.25L530 671.77L540 744.15L550 671.1L560 616.29L570 552.83L580 503.59L590 571.22L600 674.35L610 587.4L620 692.94L630 676.18L640 706.08L650 737.23L660 719.85L670 768.37L680 756.67L690 818.01L700 816.09L710 761.32L720 851.29L730 842.08L740 764.75L750 738.82L760 656.61L770 751.28L780 818.84L790 848.68L800 744.64L810 656.17L820 716.27L830 617.75L840 670.88L850 761.61L860 771.54L870 761L880 684.89L890 663.03L900 605.04L910 559.69L920 508.87L930 558.99L940 565.48L950 627L960 608.16L970 575.13L980 578.76L990 527.73L1000 624.17L1010 729.35L1020 754.49L1030 755.41L1040 764.21L1050 857.47L1060 838.44L1070 746.14L1080 732.91L1090 747.37L1100 844.13L1110 765.81L1120 796.04L1130 793.29L1140 807.98L1150 739.3L1160 811.37L1170 828.34L1180 749.3L1190 686.06L1200 651.2L1210 730.22L1220 653.82L1230 722.35L1230 860L0 860z" fill="url(&quot;#SvgjsLinearGradient1011&quot;)"></path></g><defs><mask id="SvgjsMask1010"><rect width="1230" height="860" fill="#ffffff"></rect></mask><linearGradient x1="50%" y1="0%" x2="50%" y2="100%" id="SvgjsLinearGradient1011"><stop stop-opacity="0.65" stop-color="rgba(204, 164, 59, 0.16)" offset="0"></stop><stop stop-opacity="0" stop-color="rgba(252, 249, 243, 0.16)" offset="0.8"></stop></linearGradient></defs></svg>